<svg xmlns="http://www.w3.org/2000/svg" viewBox="-2 11 220 42" width="248" height="42">
  <defs>
    <style>
      .pop-text {
        fill: #ffffff;
        stroke: #000000;
        stroke-width: 3.5px;
        stroke-linejoin: round;
        paint-order: stroke fill; 
      }
    </style>
  </defs>
  <g class="pop-text">
    <path d="M4.55 49.10Q2.30 49.10 1.35 48.42Q0.40 47.75 0.20 46.67Q0 45.60 0 44.50L0 18.70Q0 17.60 0.20 16.55Q0.40 15.50 1.35 14.82Q2.30 14.15 4.60 14.15L14.55 14.15Q16.45 14.15 18.65 14.92Q20.85 15.70 22.83 17.30Q24.80 18.90 26.05 21.30Q27.30 23.70 27.30 27.00Q27.30 30.25 26.05 32.65Q24.80 35.05 22.83 36.62Q20.85 38.20 18.65 38.97Q16.45 39.75 14.50 39.75L9.15 39.75L9.15 44.55Q9.15 45.65 8.95 46.70Q8.75 47.75 7.80 48.42Q6.85 49.10 4.55 49.10M9.15 30.60L14.55 30.60Q15.20 30.60 16.05 30.27Q16.90 29.95 17.55 29.15Q18.20 28.35 18.20 26.95Q18.20 25.90 17.70 25.07Q17.20 24.25 16.38 23.77Q15.55 23.30 14.50 23.30L9.15 23.30L9.15 30.60ZM46.25 49.70Q42.60 49.70 39.42 48.32Q36.25 46.95 33.85 44.50Q31.45 42.05 30.07 38.82Q28.70 35.60 28.70 31.95Q28.70 28.15 30.02 24.85Q31.35 21.55 33.70 19.05Q36.05 16.55 39.17 15.15Q42.30 13.75 45.85 13.75Q49.50 13.75 52.67 15.12Q55.85 16.50 58.25 18.95Q60.65 21.40 62 24.67Q63.35 27.95 63.35 31.75Q63.35 35.45 62.02 38.70Q60.70 41.95 58.33 44.42Q55.95 46.90 52.88 48.30Q49.80 49.70 46.25 49.70M46 40.55Q47.70 40.55 49.20 39.87Q50.70 39.20 51.83 38.02Q52.95 36.85 53.58 35.22Q54.20 33.60 54.20 31.75Q54.20 29.90 53.55 28.30Q52.90 26.70 51.78 25.47Q50.65 24.25 49.17 23.57Q47.70 22.90 46.05 22.90Q44.35 22.90 42.88 23.57Q41.40 24.25 40.27 25.47Q39.15 26.70 38.50 28.30Q37.85 29.90 37.85 31.75Q37.85 33.55 38.50 35.15Q39.15 36.75 40.27 37.97Q41.40 39.20 42.88 39.87Q44.35 40.55 46 40.55ZM70.35 49.10Q68.10 49.10 67.15 48.42Q66.20 47.75 66.00 46.67Q65.80 45.60 65.80 44.50L65.80 18.70Q65.80 17.60 66.00 16.55Q66.20 15.50 67.15 14.82Q68.10 14.15 70.40 14.15L80.35 14.15Q82.25 14.15 84.45 14.92Q86.65 15.70 88.63 17.30Q90.60 18.90 91.85 21.30Q93.10 23.70 93.10 27.00Q93.10 30.25 91.85 32.65Q90.60 35.05 88.63 36.62Q86.65 38.20 84.45 38.97Q82.25 39.75 80.30 39.75L74.95 39.75L74.95 44.55Q74.95 45.65 74.75 46.70Q74.55 47.75 73.60 48.42Q72.65 49.10 70.35 49.10M74.95 30.60L80.35 30.60Q81.00 30.60 81.85 30.27Q82.70 29.95 83.35 29.15Q84.00 28.35 84.00 26.95Q84.00 25.90 83.50 25.07Q83.00 24.25 82.18 23.77Q81.35 23.30 80.30 23.30L74.95 23.30L74.95 30.60ZM108.30 49.10Q106.70 49.10 105.80 48.45Q104.90 47.80 104.50 47.02Q104.10 46.25 104.00 46.00L95.00 20.20Q94.25 17.70 94.78 16.47Q95.30 15.25 97.90 14.40Q99.60 13.85 100.65 13.90Q101.70 13.95 102.40 14.75Q103.10 15.55 103.65 17.25L108.85 32.45L112.95 17.50Q113.10 17.00 113.48 16.20Q113.85 15.40 114.75 14.77Q115.65 14.15 117.35 14.15Q119.25 14.15 120.18 14.85Q121.10 15.55 121.45 16.35Q121.80 17.15 121.95 17.55L126.05 32.55L131.25 17.25Q131.80 15.60 132.48 14.77Q133.15 13.95 134.25 13.85Q135.35 13.75 137.05 14.35Q138.85 15.00 139.60 15.72Q140.35 16.45 140.38 17.50Q140.40 18.55 139.90 20.20L130.95 46.00Q130.85 46.30 130.48 47.05Q130.10 47.80 129.20 48.45Q128.30 49.10 126.60 49.10Q124.90 49.10 123.95 48.32Q123.00 47.55 122.60 46.72Q122.20 45.90 122.15 45.75L117.45 30.35L112.75 45.70Q112.70 45.95 112.30 46.77Q111.90 47.60 110.98 48.35Q110.05 49.10 108.30 49.10ZM147.10 49.15Q144.85 49.15 143.90 48.47Q142.95 47.80 142.75 46.72Q142.55 45.65 142.55 44.55L142.55 18.70Q142.55 17.60 142.75 16.55Q142.95 15.50 143.90 14.82Q144.85 14.15 147.15 14.15Q149.45 14.15 150.38 14.82Q151.30 15.50 151.50 16.55Q151.70 17.60 151.70 18.75L151.70 44.60Q151.70 45.70 151.50 46.75Q151.30 47.80 150.35 48.47Q149.40 49.15 147.10 49.15ZM159 49.15Q156.80 49.15 155.85 48.47Q154.90 47.80 154.70 46.75Q154.50 45.70 154.50 44.55L154.50 18.60Q154.50 17.50 154.70 16.50Q154.90 15.50 155.88 14.85Q156.85 14.20 159.10 14.20Q161.30 14.20 162.10 14.75Q162.90 15.30 163.55 16.15L176.05 32.95L176.05 18.60Q176.05 17.50 176.28 16.50Q176.50 15.50 177.45 14.85Q178.40 14.20 180.65 14.20Q182.95 14.20 183.88 14.87Q184.80 15.55 185 16.60Q185.20 17.65 185.20 18.80L185.20 44.60Q185.20 45.70 185 46.75Q184.80 47.80 183.85 48.47Q182.90 49.15 180.60 49.15Q178.90 49.15 178.03 48.87Q177.15 48.60 176.55 47.80L163.60 30.70L163.60 44.60Q163.60 45.70 163.40 46.75Q163.20 47.80 162.25 48.47Q161.30 49.15 159 49.15ZM193.15 49.15Q190.90 49.15 189.95 48.47Q189 47.80 188.80 46.72Q188.60 45.65 188.60 44.55L188.60 18.70Q188.60 17.60 188.80 16.55Q189 15.50 189.95 14.82Q190.90 14.15 193.20 14.15Q195.50 14.15 196.42 14.82Q197.35 15.50 197.55 16.55Q197.75 17.60 197.75 18.75L197.75 25.65L206.45 15.70Q207.60 14.45 208.60 13.95Q209.60 13.45 210.65 13.75Q211.70 14.05 212.95 15.25Q215 17.10 215.05 18.50Q215.10 19.90 213.40 21.70L203.60 31.70L213.45 41.55Q215.30 43.40 215.18 44.87Q215.05 46.35 213 48.05Q211.50 49.25 210.45 49.55Q209.40 49.85 208.50 49.32Q207.60 48.80 206.50 47.50L197.75 37.55L197.75 44.60Q197.75 45.70 197.55 46.75Q197.35 47.80 196.40 48.47Q195.45 49.15 193.15 49.15Z"/>
  </g>
</svg>